<?xml version="1.0" standalone="no"?>
<!DOCTYPE svg PUBLIC "-//W3C//DTD SVG 20010904//EN"
 "http://www.w3.org/TR/2001/REC-SVG-20010904/DTD/svg10.dtd">
<svg version="1.0" xmlns="http://www.w3.org/2000/svg"
 width="2183.000000pt" height="549.000000pt" viewBox="0 0 2183.000000 549.000000"
 preserveAspectRatio="xMidYMid meet">

<g transform="translate(0.000000,549.000000) scale(0.100000,-0.100000)"
fill="#000000" stroke="none">
<path d="M0 3953 c0 -962 4 -1578 10 -1645 12 -126 41 -231 116 -422 262 -664
672 -1163 1254 -1531 195 -123 577 -299 730 -336 93 -23 260 -17 372 14 144
39 277 91 429 168 557 282 973 674 1308 1234 142 237 221 424 277 650 55 225
54 199 54 1866 l0 1539 -2275 0 -2275 0 0 -1537z m2804 1375 c3 -13 7 -62 8
-110 3 -81 6 -93 49 -176 l46 -89 -39 -62 c-51 -81 -69 -133 -70 -201 -1 -69
13 -114 57 -176 19 -27 35 -56 35 -65 0 -8 -20 -70 -45 -137 -53 -144 -58
-200 -21 -277 13 -27 39 -65 59 -84 l35 -33 -49 -67 c-67 -92 -87 -172 -70
-279 20 -132 40 -147 201 -147 128 0 163 12 240 81 l39 35 54 -44 c79 -64 128
-80 230 -75 90 5 146 28 196 82 14 14 30 26 37 26 7 0 38 -18 70 -40 144 -100
298 -99 413 5 32 29 46 36 65 31 33 -8 72 -61 83 -111 5 -22 9 -242 9 -490 -1
-434 -2 -451 -22 -489 -11 -22 -35 -47 -54 -57 -33 -18 -35 -18 -64 2 -17 11
-62 36 -101 55 -119 58 -215 46 -339 -43 -56 -40 -39 -44 -159 30 -128 78
-215 70 -368 -34 l-56 -38 -24 25 c-13 14 -53 39 -88 57 -62 30 -72 32 -176
32 -164 0 -186 -23 -188 -200 -1 -101 21 -168 75 -230 l41 -46 -32 -44 c-60
-84 -86 -153 -86 -230 1 -74 19 -121 73 -192 28 -38 29 -37 -27 -191 -62 -172
-54 -253 34 -351 l38 -42 -32 -44 c-114 -159 -113 -307 4 -449 l36 -44 -58
-51 c-68 -61 -197 -129 -308 -164 -123 -38 -221 -51 -348 -44 -194 10 -327 61
-442 169 -90 83 -91 88 -53 134 17 22 44 67 60 102 27 55 30 71 26 135 -4 82
-28 140 -83 205 l-36 41 37 48 c117 152 110 296 -21 469 -6 9 1 27 23 58 56
78 82 144 82 212 0 87 -19 132 -106 252 -17 22 -16 24 19 60 56 58 80 122 85
227 7 158 -28 207 -156 221 -110 12 -202 -15 -279 -81 l-40 -34 -53 36 c-29
19 -77 47 -108 60 -92 43 -187 25 -309 -58 -23 -16 -47 -29 -53 -29 -6 0 -30
13 -53 29 -81 55 -129 74 -203 79 -83 5 -135 -14 -221 -79 l-52 -41 -57 44
c-107 81 -99 36 -99 541 0 497 -4 472 77 542 71 61 78 62 134 20 79 -60 129
-79 214 -79 83 -1 129 17 207 80 23 19 44 34 48 34 3 0 26 -14 51 -31 164
-112 298 -113 428 0 l49 42 36 -35 c20 -19 63 -47 96 -63 53 -24 72 -27 155
-27 161 1 183 22 188 180 5 124 -11 182 -69 248 l-40 45 50 83 c84 137 91 236
26 339 -63 99 -62 85 -15 205 72 184 67 290 -20 384 l-39 43 31 46 c58 83 77
146 78 247 0 50 3 94 7 97 3 4 228 7 499 7 l494 0 4 -22z m-1916 -120 l3 -77
32 -6 c18 -3 55 -6 82 -7 l50 -3 3 -66 c3 -79 -6 -93 -70 -103 -87 -14 -88
-15 -88 -193 l0 -156 65 5 c67 6 165 46 268 109 26 16 52 29 57 29 6 0 10 -81
10 -215 0 -122 -4 -215 -9 -215 -5 0 -47 22 -93 49 -96 57 -190 91 -248 91
l-40 0 2 -182 c3 -175 4 -183 23 -185 11 -1 46 -5 78 -8 l58 -7 -3 -71 -3 -72
-65 -23 c-87 -30 -100 -47 -100 -133 l0 -69 -85 0 -85 0 0 78 c0 91 -8 103
-80 122 -81 21 -90 32 -90 105 l0 65 34 0 c18 0 54 3 79 6 l45 6 6 132 c4 72
3 154 -1 181 l-8 50 -40 -1 c-24 0 -100 -24 -192 -61 l-153 -61 0 209 c0 115
3 209 6 209 4 0 45 -22 93 -49 99 -56 164 -80 239 -88 l52 -6 0 161 0 162 -40
20 c-21 11 -57 20 -80 20 l-40 0 0 80 0 80 63 0 c84 0 98 12 108 89 5 35 12
67 15 72 3 6 36 9 72 7 l67 -3 3 -77z m2658 -3078 c2 0 10 14 19 30 l16 30 31
-35 c29 -34 30 -36 13 -55 -23 -25 -78 -43 -107 -35 -43 12 -78 27 -78 34 0 4
14 26 31 50 l32 43 19 -31 c11 -17 22 -31 24 -31z m308 -141 c-90 -108 -92
-109 -116 -75 l-21 27 -37 -36 c-21 -20 -40 -33 -43 -28 -4 6 11 42 32 82 l38
72 36 -40 c20 -23 39 -41 41 -41 2 0 9 36 16 81 13 80 13 81 59 114 l46 34 6
-57 7 -57 -64 -76z m-641 151 c28 -22 42 -58 53 -133 3 -26 10 -50 15 -52 4
-3 20 10 35 30 14 19 31 35 38 35 6 0 28 -32 48 -70 43 -78 35 -105 -14 -46
l-31 37 -28 -27 -29 -28 -56 54 c-68 67 -94 115 -94 175 0 37 3 45 19 45 10 0
30 -9 44 -20z m395 -120 c23 -10 42 -21 42 -25 0 -3 -47 -5 -105 -5 -109 0
-126 8 -77 34 37 21 89 19 140 -4z m-427 -40 c46 -25 214 -304 227 -377 10
-59 3 -66 -35 -32 -20 20 -23 20 -29 5 -10 -25 -23 -20 -78 32 -41 38 -50 54
-48 75 2 15 -1 27 -6 27 -10 0 -34 51 -52 113 -8 25 -23 45 -43 57 l-30 19 26
12 27 12 -22 24 c-19 20 -20 25 -8 33 20 13 47 12 71 0z m792 -7 c5 -3 -1 -15
-12 -27 -15 -16 -18 -25 -10 -33 7 -7 -3 -38 -37 -104 -25 -52 -51 -97 -57
-100 -5 -4 -7 -22 -3 -43 7 -38 -3 -47 -24 -21 -19 23 -33 18 -27 -11 7 -37
-26 -68 -64 -60 -22 4 -32 1 -41 -14 -7 -11 -19 -20 -27 -20 -18 0 -9 86 15
132 43 85 186 296 206 305 21 10 60 8 81 -4z m-358 -86 c9 -70 1 -597 -9 -619
-18 -39 -117 -44 -136 -7 -6 10 -10 155 -10 348 l0 331 74 0 75 0 6 -53z m156
-509 l20 -27 -31 -16 c-16 -8 -30 -20 -30 -25 0 -5 34 -25 76 -45 76 -36 85
-46 108 -122 5 -17 3 -21 -11 -18 -10 2 -35 7 -56 10 -30 5 -42 14 -64 48 -14
23 -48 67 -75 98 l-48 57 36 21 c25 15 33 25 27 34 -5 6 -24 30 -41 53 -17 23
-28 45 -24 49 7 7 72 -61 113 -117z m-380 85 c-12 -16 -30 -40 -41 -54 l-19
-26 34 -16 c19 -9 35 -22 35 -28 0 -7 -25 -38 -55 -70 -42 -44 -55 -65 -55
-88 0 -28 -3 -30 -57 -41 -32 -6 -64 -13 -70 -15 -16 -5 -16 -8 3 48 15 43 22
50 95 89 43 24 79 45 79 48 0 3 -20 16 -45 29 -37 20 -43 27 -33 37 48 45 133
114 140 114 5 0 0 -12 -11 -27z m234 -293 c-51 -32 -103 -34 -160 -6 l-50 24
120 1 120 1 -30 -20z m-25 -66 c22 -9 40 -19 40 -23 0 -10 -63 -91 -71 -91 -4
0 -14 11 -23 25 -20 31 -30 31 -43 3 -9 -21 -10 -20 -37 15 -31 40 -28 53 18
73 41 18 67 17 116 -2z"/>
<path d="M1541 3302 c-7 -15 -19 -37 -27 -50 l-15 -23 -34 21 -34 21 15 -53
c8 -29 19 -66 24 -81 10 -31 12 -29 -58 -47 -35 -9 -41 -14 -32 -25 14 -17
112 -42 215 -55 106 -14 170 -45 219 -110 63 -82 167 -181 246 -235 57 -38 77
-58 84 -83 11 -40 -3 -53 -83 -79 l-55 -18 55 -12 c121 -29 421 -25 476 6 8 4
-21 18 -72 35 l-85 27 47 55 c27 31 91 92 143 137 52 45 147 132 212 194 189
182 326 234 373 144 37 -72 6 -111 -113 -147 -201 -59 -236 -74 -286 -117 -44
-39 -48 -45 -37 -65 16 -30 81 -28 81 3 0 24 37 43 165 85 198 65 233 84 257
137 40 91 -3 187 -92 203 -66 12 -136 -3 -276 -60 -129 -52 -193 -62 -237 -38
-12 6 -55 14 -95 18 -87 9 -106 21 -181 113 -30 38 -61 67 -71 67 -10 0 -41
-29 -70 -65 -64 -83 -99 -105 -166 -105 -37 0 -65 -7 -95 -25 -48 -27 -90 -31
-171 -14 -82 16 -80 14 -58 51 29 48 26 97 -10 146 -28 38 -50 53 -50 35 0 -5
-9 -19 -19 -32 l-19 -25 -21 42 c-27 53 -35 57 -50 24z"/>
<path d="M5710 4515 l0 -905 570 0 570 0 0 125 0 125 -435 0 -435 0 0 780 0
780 -135 0 -135 0 0 -905z"/>
<path d="M11340 4515 l0 -905 130 0 129 0 3 443 3 442 27 52 c15 28 43 64 62
78 104 79 266 70 353 -21 71 -74 73 -87 73 -571 l0 -423 131 0 130 0 -3 478
c-4 468 -4 478 -27 539 -64 173 -194 268 -386 280 -128 9 -238 -28 -330 -109
l-35 -30 0 326 0 326 -130 0 -130 0 0 -905z"/>
<path d="M12780 4515 l0 -905 125 0 125 0 0 60 c0 33 3 60 6 60 3 0 28 -20 56
-44 77 -70 140 -90 278 -90 127 0 183 15 273 74 134 90 196 309 184 650 -6
174 -25 274 -68 367 -72 152 -230 234 -427 220 -101 -7 -179 -37 -242 -93
l-50 -46 0 326 0 326 -130 0 -130 0 0 -905z m645 137 c80 -40 118 -110 136
-244 16 -117 6 -326 -19 -406 -41 -128 -107 -177 -237 -176 -133 0 -201 53
-241 186 -15 51 -19 96 -19 238 0 142 4 187 19 238 31 104 83 160 171 183 49
13 147 3 190 -19z"/>
<path d="M20790 4515 l0 -905 130 0 129 0 3 443 3 442 27 52 c15 28 43 64 62
78 104 79 266 70 353 -21 71 -74 73 -87 73 -571 l0 -423 131 0 130 0 -3 478
c-4 468 -4 478 -27 539 -64 173 -194 268 -386 280 -128 9 -238 -28 -330 -109
l-35 -30 0 326 0 326 -130 0 -130 0 0 -905z"/>
<path d="M7474 4895 c-191 -41 -330 -184 -381 -390 -24 -99 -24 -411 0 -510
63 -254 255 -405 517 -405 262 0 454 151 517 405 13 54 17 114 17 255 0 208
-12 279 -66 390 -99 204 -351 310 -604 255z m248 -238 c127 -53 176 -188 165
-457 -8 -207 -43 -287 -148 -345 -46 -25 -65 -29 -129 -29 -64 0 -83 4 -129
29 -105 58 -140 138 -148 345 -11 282 44 419 187 465 52 17 151 13 202 -8z"/>
<path d="M10208 4895 c-121 -30 -203 -96 -258 -206 -53 -103 -64 -177 -64
-414 0 -227 10 -296 59 -403 32 -69 112 -152 177 -184 169 -82 380 -57 510 60
l40 37 -4 -136 c-3 -129 -5 -138 -37 -203 -23 -46 -46 -76 -74 -97 -117 -85
-308 -75 -429 21 -20 17 -41 30 -45 30 -5 0 -44 -36 -87 -79 l-79 -80 24 -21
c54 -47 132 -91 206 -117 69 -24 93 -27 213 -27 103 -1 149 4 195 18 192 58
318 195 360 392 12 57 15 189 15 737 l0 667 -125 0 -125 0 0 -66 0 -66 -55 50
c-74 68 -143 93 -265 98 -61 2 -115 -2 -152 -11z m289 -230 c64 -19 122 -81
147 -157 24 -70 33 -290 17 -383 -31 -179 -103 -247 -258 -247 -125 0 -202 57
-239 176 -21 70 -30 284 -15 372 14 79 42 148 74 182 60 65 171 88 274 57z"/>
<path d="M14524 4895 c-141 -30 -272 -131 -332 -255 -54 -111 -66 -182 -66
-390 0 -141 4 -201 17 -255 63 -254 255 -405 517 -405 262 0 454 151 517 405
13 54 17 114 17 255 0 208 -12 279 -66 390 -99 204 -351 310 -604 255z m248
-238 c127 -53 176 -188 165 -457 -8 -207 -43 -287 -148 -345 -46 -25 -65 -29
-129 -29 -64 0 -83 4 -129 29 -105 58 -140 138 -148 345 -11 282 44 419 187
465 52 17 151 13 202 -8z"/>
<path d="M16035 4897 c-77 -21 -136 -50 -187 -96 l-48 -43 0 66 0 66 -125 0
-125 0 0 -640 0 -640 130 0 129 0 3 433 3 433 30 59 c73 144 247 187 374 93
l43 -31 96 97 97 97 -30 25 c-16 14 -59 40 -94 56 -53 26 -77 31 -155 34 -53
2 -112 -2 -141 -9z"/>
<path d="M16924 4895 c-141 -30 -272 -131 -332 -255 -54 -111 -66 -182 -66
-390 0 -141 4 -201 17 -255 63 -254 255 -405 517 -405 262 0 454 151 517 405
13 54 17 114 17 255 0 208 -12 279 -66 390 -99 204 -351 310 -604 255z m248
-238 c127 -53 176 -188 165 -457 -8 -207 -43 -287 -148 -345 -46 -25 -65 -29
-129 -29 -64 0 -83 4 -129 29 -105 58 -140 138 -148 345 -11 282 44 419 187
465 52 17 151 13 202 -8z"/>
<path d="M19658 4895 c-121 -30 -203 -96 -258 -206 -53 -103 -64 -177 -64
-414 0 -227 10 -296 59 -403 32 -69 112 -152 177 -184 169 -82 380 -57 510 60
l40 37 -4 -136 c-3 -129 -5 -138 -37 -203 -23 -46 -46 -76 -74 -97 -117 -85
-308 -75 -429 21 -20 17 -41 30 -45 30 -5 0 -44 -36 -87 -79 l-79 -80 24 -21
c54 -47 132 -91 206 -117 69 -24 93 -27 213 -27 103 -1 149 4 195 18 192 58
318 195 360 392 12 57 15 189 15 737 l0 667 -125 0 -125 0 0 -66 0 -66 -55 50
c-74 68 -143 93 -265 98 -61 2 -115 -2 -152 -11z m289 -230 c64 -19 122 -81
147 -157 24 -70 33 -290 17 -383 -31 -179 -103 -247 -258 -247 -125 0 -202 57
-239 176 -21 70 -30 284 -15 372 14 79 42 148 74 182 60 65 171 88 274 57z"/>
<path d="M8480 4448 c0 -492 4 -538 55 -638 123 -243 478 -295 713 -104 l32
27 0 -62 0 -61 125 0 125 0 0 645 0 645 -130 0 -129 0 -3 -442 c-3 -425 -4
-445 -24 -488 -54 -117 -195 -176 -328 -136 -68 21 -114 60 -145 125 l-26 56
-3 443 -3 442 -129 0 -130 0 0 -452z"/>
<path d="M17930 4448 c0 -492 4 -538 55 -638 123 -243 478 -295 713 -104 l32
27 0 -62 0 -61 125 0 125 0 0 645 0 645 -130 0 -129 0 -3 -442 c-3 -425 -4
-445 -24 -488 -54 -117 -195 -176 -328 -136 -68 21 -114 60 -145 125 l-26 56
-3 443 -3 442 -129 0 -130 0 0 -452z"/>
<path d="M8830 2755 l0 -135 140 0 140 0 0 135 0 135 -140 0 -140 0 0 -135z"/>
<path d="M14400 2755 l0 -135 140 0 140 0 0 135 0 135 -140 0 -140 0 0 -135z"/>
<path d="M5682 2213 c4 -732 1 -700 65 -828 156 -312 581 -429 918 -252 89 47
194 156 238 247 68 140 67 123 67 847 l0 653 -135 0 -135 0 0 -619 c0 -376 -4
-639 -10 -672 -22 -118 -91 -207 -199 -258 -50 -23 -68 -26 -166 -26 -98 0
-116 3 -166 26 -115 54 -180 152 -198 299 -7 51 -11 319 -11 667 l0 583 -135
0 -136 0 3 -667z"/>
<path d="M15110 2530 l0 -200 -75 0 -75 0 0 -100 0 -100 75 0 75 0 0 -377 c0
-408 4 -441 54 -527 32 -55 76 -92 146 -125 48 -22 72 -26 183 -29 l127 -4 0
111 0 111 -72 0 c-89 0 -136 20 -160 70 -16 31 -18 73 -18 403 l0 367 125 0
125 0 0 100 0 100 -125 0 -125 0 0 200 0 200 -130 0 -130 0 0 -200z"/>
<path d="M7862 2354 c-66 -17 -104 -36 -169 -85 l-53 -40 0 66 0 65 -125 0
-125 0 0 -645 0 -645 130 0 130 0 0 418 c0 450 2 474 53 551 52 79 183 118
290 87 69 -20 117 -60 148 -124 24 -47 24 -48 27 -489 l3 -443 129 0 130 0 0
448 c0 485 -4 532 -55 632 -86 170 -309 259 -513 204z"/>
<path d="M11045 2360 c-112 -23 -189 -66 -266 -147 -66 -69 -112 -154 -141
-262 -29 -105 -31 -349 -5 -466 52 -225 183 -365 387 -416 33 -9 106 -14 185
-13 114 0 140 4 208 27 82 29 155 71 222 131 l40 35 -80 75 c-44 41 -83 75
-87 76 -3 0 -25 -16 -49 -36 -61 -51 -107 -72 -189 -85 -123 -21 -241 13 -312
88 -41 43 -78 133 -85 207 l-6 66 417 0 416 0 0 109 c0 204 -51 351 -160 465
-71 74 -153 120 -255 141 -75 16 -176 18 -240 5z m204 -220 c105 -30 175 -130
195 -277 l6 -43 -291 0 -292 0 5 58 c3 32 16 82 28 110 26 60 100 133 152 149
43 14 154 16 197 3z"/>
<path d="M12535 2357 c-77 -21 -136 -50 -187 -96 l-48 -43 0 66 0 66 -125 0
-125 0 0 -640 0 -640 130 0 129 0 3 433 3 433 30 59 c73 144 247 187 374 93
l43 -31 96 97 97 97 -30 25 c-16 14 -59 40 -94 56 -53 26 -77 31 -155 34 -53
2 -112 -2 -141 -9z"/>
<path d="M13420 2355 c-155 -35 -277 -127 -320 -242 -22 -58 -29 -178 -14
-239 13 -53 52 -120 90 -154 74 -65 168 -91 389 -110 155 -14 203 -28 240 -72
21 -24 25 -40 25 -90 0 -59 -2 -63 -43 -103 -57 -54 -113 -70 -247 -70 -130 1
-220 26 -304 86 l-58 42 -85 -85 -85 -86 53 -40 c134 -101 250 -134 469 -136
221 -1 338 34 444 134 79 75 110 149 111 265 0 111 -21 176 -77 240 -74 84
-166 117 -379 134 -167 14 -222 27 -259 58 -62 52 -60 155 5 212 49 42 101 54
225 49 110 -5 192 -27 248 -67 l29 -20 82 82 81 83 -28 21 c-50 37 -132 74
-210 94 -104 27 -295 34 -382 14z"/>
<path d="M8840 1715 l0 -645 130 0 130 0 0 645 0 645 -130 0 -130 0 0 -645z"/>
<path d="M9349 2283 c16 -43 122 -333 236 -645 l208 -568 106 0 106 0 236 645
236 645 -138 0 -137 0 -149 -445 c-81 -245 -151 -445 -154 -445 -3 0 -73 200
-155 445 l-149 445 -137 0 -137 0 28 -77z"/>
<path d="M14410 1715 l0 -645 130 0 130 0 0 645 0 645 -130 0 -130 0 0 -645z"/>
<path d="M15774 2323 c8 -21 109 -297 225 -615 l211 -576 -39 -111 c-69 -194
-90 -216 -210 -227 l-71 -7 0 -115 0 -115 109 5 c98 4 116 8 175 37 72 35 114
79 150 156 13 28 139 363 279 745 141 382 269 732 286 778 l30 82 -139 0 -139
0 -147 -450 c-81 -248 -151 -447 -154 -443 -4 5 -74 207 -156 450 l-149 443
-137 0 -137 0 13 -37z"/>
</g>
</svg>
