<svg id="Layer_1" data-name="Layer 1" xmlns="http://www.w3.org/2000/svg" viewBox="0 0 1000 1000"><defs><style>.cls-1{fill:#565656;}</style></defs><path class="cls-1" d="M197.54,408.52H86.8v102.6c0,8.89,4,17.47,8.3,25.41,6.85,12.71,21.28,28.91,37.51,39.39l3.25,1.9c.36.32.72.32,1.08.64.72.32,1.44.95,2.17,1.27.36.32.72.32,1.44.64s1.08.63,1.8,1c.36.32,1.08.32,1.45.63.72.32,1.08.64,1.8,1,.36.32,1.08.32,1.44.63a4.08,4.08,0,0,0,1.81.64c.36.32,1.08.32,1.44.63.72.32,1.08.32,1.8.64.36.32.72.32,1.44.63s1.81.64,2.53,1c9,3.17,15.51,4.44,17.67,4.44h0c2.17,0,9.74-1.58,19.48-5.4l2.17-1c-.72.32-.36.32-.36.32a8.58,8.58,0,0,0,1.8-1c.36,0,.72-.32,1.08-.32l2.17-.95,2.16-1c.36-.32.72-.32,1.08-.63.72-.32,1.09-.64,1.81-1,.36-.31.72-.31,1.08-.63a7.86,7.86,0,0,0,2.16-1.27c.36-.32.72-.32,1.09-.64l3.24-1.9c16.23-10.49,30.66-26.69,37.52-39.39,4.32-8.26,8.29-16.84,8.29-25.41V408.52ZM98.71,433c2.16,1.58,8.29,5.71,15.15,6h.36V426.94h-6.86v-5.72h6.86v-6h6.49v5.71h6.49v5.72h-6.49v12.07h.36c6.49,0,12.63-4.13,14.79-6v16.2c-2.16-1.59-8.3-5.72-14.79-5.72h-.36v12.71h6.85v5.71h-6.85v7h-6.49v-7h-6.86v-5.71h6.5V443.14h-.36c-6.5,0-13,4.13-15.15,5.72V433Zm106.41,98.47a3,3,0,0,1-.36-1l.36-.31a5.36,5.36,0,0,1,1.8-.32h0a5.69,5.69,0,0,1-2.52-.64c-.37-.31-.73-1-1.09-1.27v-.31c.36,0,1.81.31,2.17.31h.72v-.31h0a3.72,3.72,0,0,1-1.44-.64c-.73-.32-1.09-.63-1.45-.63-.36-.32-.72-.32-1.08-.64a.33.33,0,0,0-.36-.32c.36,0,1.44.32,2.16.32h1.09a10.28,10.28,0,0,1-2.53-1l-.36-.32c-.72-.64-1.44-1-1.8-1.59,0-.32-.36-1.27-.36-1.59h.36c.72.32,3.24,1.59,5,2.54v.64c0,.63.36.95.72.95a2.38,2.38,0,0,0,1.44-.32c1.08,1.59,3.25,4.77,4.33,6.68a6.72,6.72,0,0,0,1.08,1.58,13.06,13.06,0,0,0,2.89,2.86,1.32,1.32,0,0,1,.36,1v3.17h-1.08c-.36,0-.72,0-.72-.32v-1.9h0l-.37-.32h-.36c0,.32-.36.64,0,1h0v.64c-.36.32-.72.32-1.44,0,0,0-.36,0-.36-.32v-.63c.36-.32.36-1.27.36-1.27h0s-.72.31-.72.63v.64a.74.74,0,0,1-.72-.64,9.43,9.43,0,0,1,1.08-3.18h-.36a6.24,6.24,0,0,0-1.08,1.27c0,.32-.36.64-.36,1v.32s-.36,0-.72-.64a1.87,1.87,0,0,1-.73-1.27c0-.32.36-.32.73-.64l.36-.31a.94.94,0,0,0,.36-.64h0a4,4,0,0,0-1.45.32c-.36,0-.36.32-.72.32h0a.33.33,0,0,0-.36-.32c0-.32-.36-.32-.36-.64V533a6.55,6.55,0,0,1,1.8-.64H208a9.5,9.5,0,0,1-2.88-.95m6.13-4.45,1.44-2.22c0-.32.36-.32.72-.32s.72,0,.72.32l2.53,3.49v2.54l-2.89-4.44-1.44,2.54c0,.31-.36.31-.72.31s-.72,0-.72-.31l-3.25-5.4-.36.63a1.19,1.19,0,0,1-.72.32c-.36,0-.36-.32-.36-.64V520h0c0-.32.36-.32.36-.32h.72l3.25,2.23c.36.32.36.32.36.63a.74.74,0,0,1-.72.64h-1.09Zm6.85-6a1.32,1.32,0,0,1-.36-1c0-1,.72-2.22,1.08-2.22a5.1,5.1,0,0,0,1.81,2.54h0a4,4,0,0,0,.72-1c.36-.64,0-1.27,0-1.59a7.13,7.13,0,0,1,1.44,1.59v1.27h0a1.47,1.47,0,0,0,1.08-1.27,1,1,0,0,1,.36.63c0,.32.37.64,0,1.27s-1.08,1.27-1.44,1.27H217a4.83,4.83,0,0,1-1.8-1.9v-1.27c0,.31.36.63.72,1a3.88,3.88,0,0,0,2.16.64h0m12.27,1.9a.74.74,0,0,1-.72-.63c0-.32,0-.64.36-.64l3.24-2.22c.36,0,.36-.32.72,0a.32.32,0,0,1,.36.31h0v3.82a1.09,1.09,0,0,1-.36.63c-.36,0-.72,0-.72-.32l-.36-.63-3.24,5.4c0,.32-.37.32-.73.32s-.72,0-.72-.32l-1.44-2.54-2.89,4.76v-2.54l2.53-3.81c0-.32.36-.32.72-.32s.72,0,.72.32l1.44,2.22,2.53-4.13Zm-13,3.81h5.41a76.9,76.9,0,0,1,.72,11.76c0,5.4-.72,11.43-1.08,12.07v.31H217v-.31a78.63,78.63,0,0,1-1.08-12.07c.72-5.4,1.44-10.49,1.44-11.76m-1.44-1.9a1.46,1.46,0,0,1,1.44-1.27h6.13a1.28,1.28,0,1,1,0,2.54h-6.13c-.72-.32-1.44-.64-1.44-1.27m1.44,26.36h6.13a1.28,1.28,0,1,1,0,2.54h-6.13a1.28,1.28,0,1,1,0-2.54m-1.8-3.49-5.41,4.13.72.32c.36,0,.36.31.36.63a.74.74,0,0,1-.72.64l-4,1h0c-.36,0-.36,0-.72-.32v-.63l1.44-3.5c0-.32.36-.32.72-.32a.74.74,0,0,1,.72.64l.36.95,4-3.17-2.88-.64c-.36,0-.36-.32-.72-.64,0-.31,0-.63.36-.63l5.05-4.45s.36,0,.36-.32h.36v1.59h0L212,546.06l2.89.63a.74.74,0,0,1,.72.64c.36-.32,0,0,0,.32M225,557.5c0-.32-.36-.64-.73-1a2.39,2.39,0,0,0-1.44-.63h0a1.28,1.28,0,0,1,.36,1c0,.95-.72,2.22-1.08,2.22a5.05,5.05,0,0,0-1.8-2.54h0a4,4,0,0,0-.72,1c-.37.63,0,1.27,0,1.58a6.85,6.85,0,0,1-1.45-1.58v-1.28h0A1.47,1.47,0,0,0,217,557.5a1.09,1.09,0,0,1-.36-.64c0-.32-.36-.64,0-1.27s1.08-1.27,1.44-1.27h5.77a4.85,4.85,0,0,1,1.81,1.9,1.23,1.23,0,0,0-.72,1.28m9.37-3.5a1.31,1.31,0,0,1-.72.32h0l-4-1a.74.74,0,0,1-.73-.64c0-.32,0-.63.36-.63l.73-.32-5.41-4.13c-.37-.32-.37-.32-.37-.64s.37-.32.73-.63l2.88-.64-3.61-3.17h0V541h.37s.36,0,.36.31l5,4.45c.36.32.36.32.36.64s-.36.31-.72.63l-2.53.32,4,3.18.36-1a.74.74,0,0,1,.72-.63,1.31,1.31,0,0,1,.72.32l1.44,3.49c.37.64.37.95,0,1.27m6.14-31.13a4,4,0,0,1-1.81,1.59l-.36.32a10.28,10.28,0,0,1-2.52,1h1.08c.72,0,1.44-.32,2.16-.32a.33.33,0,0,1-.36.32,4.5,4.5,0,0,1-1.08.64c-.36.31-.72.31-1.44.63a3.72,3.72,0,0,1-1.44.64h-.37V528h.73c.36,0,1.44-.31,1.8-.31V528a1.71,1.71,0,0,1-1.08,1.27,7.37,7.37,0,0,1-2.53.64h0a5.43,5.43,0,0,1,1.81.32l.36.31a1.09,1.09,0,0,1-.36,1,4.86,4.86,0,0,1-1.81.63h-1.08a6.55,6.55,0,0,1,1.8.64V533c0,.31-.36.31-.36.63l-.36.32h0a1.19,1.19,0,0,1-.72-.32,4,4,0,0,0-1.44-.32h0a.94.94,0,0,0,.36.64l.36.32.72.63c0,.32,0,.64-.72,1.27l-.36,1.59v-.32a1.09,1.09,0,0,0-.36-1,5.94,5.94,0,0,0-1.08-1.27h0a19.21,19.21,0,0,0,1.08,3.18c0,.31-.72.63-.72.63v-.63l-.72-.64h0a2.84,2.84,0,0,0,.36,1.27c0,.32.36.32,0,.64l-.36.31c-.37.32-1.09,0-1.45,0-.36-.31-.36-.31,0-.63h0c.36-.64,0-.64,0-.95h-.36a.32.32,0,0,0-.36.31h0c0,.32.36,1.59,0,1.91,0,.32-.36.32-.72.32h-1.08V537.8c0-.63,0-.95.36-.95a6,6,0,0,0,2.88-2.86A6.81,6.81,0,0,0,230,532.4a60.41,60.41,0,0,1,4.32-6.67,1.17,1.17,0,0,0,1.45.32c.36,0,.72-.64.72-1v-.63a52.3,52.3,0,0,0,5.05-2.54h.36c-1.08-.64-1.44.32-1.44,1m15.51-13-2.17.95a7.76,7.76,0,0,0-1.8,1.27l-.36.32h0l-1.08,1.27-1.09-1.27s-2.88-3.18-8.65-3.18A19.26,19.26,0,0,0,234,510.8a7.76,7.76,0,0,0-1.8,1.27.33.33,0,0,0-.36.32h0l-1.08,1.27-1.08-1.27s-2.89-3.18-8.66-3.18a15.43,15.43,0,0,0-6.49,1.59c-.73.32-1.09.95-1.45.95l-.36.32h0l-1.08,1.27-1.08-1.27s-2.89-3.18-8.66-3.18a21.85,21.85,0,0,0-6.13.64c-.72.32-.72.32-1.08.32h0c-.36.31-1.09,2.22-1.09,6.35a11.25,11.25,0,0,0,1.81,5.72,7.36,7.36,0,0,0,1.44,1.59c0,.31.36.31.36.31h0l1.44,1-1.44,1h0a9.64,9.64,0,0,0-3.61,7.62,11.25,11.25,0,0,0,1.81,5.72,7.13,7.13,0,0,0,1.44,1.59l.36.32h0l1.44.95-1.44,1c-.36,0-3.61,2.86-3.61,7.94a11.22,11.22,0,0,0,1.81,5.72,7.13,7.13,0,0,0,1.44,1.59l.36.32h0l1.44.95-1.44,1a10.7,10.7,0,0,0-3.61,7.95,11.21,11.21,0,0,0,1.81,5.71,7.13,7.13,0,0,0,1.44,1.59l.36.32h0l1.44,1-1.44,1a13.49,13.49,0,0,0-3.25,4.77c-10.1,4.13-18,5.72-20.2,5.72h0c-1.8,0-8.65-1.27-17.67-4.77-.72-3.81-3.25-5.72-3.61-5.72h0l-1.44-1,1.44-1h0l.36-.32a9.19,9.19,0,0,0,1.45-1.59,8.63,8.63,0,0,0,1.8-5.71c0-5.09-3.61-7.63-3.61-7.95l-1.44-1,1.44-.95h0l.36-.32a9.19,9.19,0,0,0,1.45-1.59,8.64,8.64,0,0,0,1.8-5.72c0-5.08-3.61-7.62-3.61-7.94h0l-1.44-1,1.44-.95h0l.36-.32a9.61,9.61,0,0,0,1.45-1.59,8.66,8.66,0,0,0,1.8-5.72,9.64,9.64,0,0,0-3.61-7.62l-1.44-1,1.44-1h0l.36-.31a9.61,9.61,0,0,0,1.45-1.59,8.66,8.66,0,0,0,1.8-5.72,15.63,15.63,0,0,0-1.08-6.35h0c-.36,0-.36-.32-1.08-.32a22,22,0,0,0-6.14-.64c-5.77,0-8.65,3.18-8.65,3.18L138,513.34l-1.08-1.27h0l-.36-.32a5.17,5.17,0,0,0-1.44-.95,11.8,11.8,0,0,0-6.49-1.59c-5.78,0-8.66,3.18-8.66,3.18l-1.08,1.27-3.25-1.27h0l-.36-.32c-.36-.32-1.08-.63-1.8-1.27-1.45-.95-3.61-1.59-6.86-1.59-5.77,0-8.66,3.18-8.66,3.18l-1.08,1.27-1.08-1.27h0l-.36-.32c-.36-.32-1.08-.63-1.8-1.27a8.53,8.53,0,0,0-4.33-1.27V477.45a13.23,13.23,0,0,0,4.33-1.59c.72-.32,1.44-.95,1.8-.95a.33.33,0,0,0,.36-.32h0l1.08-1.27L98,474.59s2.89,3.17,8.66,3.17a19.27,19.27,0,0,0,6.86-1.58c.72-.32,1.44-1,1.8-1l.36-.31h0l1.08-1.28,1.08,1.28s2.89,3.17,8.66,3.17a15.28,15.28,0,0,0,6.49-1.59,4.92,4.92,0,0,0,1.45-1.27l.36-.31h0l1.08-1.28,1.08,1.28s2.89,3.17,8.66,3.17a22.39,22.39,0,0,0,6.13-.63c.72-.32.72-.32,1.08-.32h0c.36-.32,1.09-2.22,1.09-6.35a11.22,11.22,0,0,0-1.81-5.72c-.36-.64-1.08-1.27-1.44-1.27l-.36-.32h0l-.36-1.91,1.44-.95A9.64,9.64,0,0,0,155,453a11.16,11.16,0,0,0-1.81-5.72,7.13,7.13,0,0,0-1.44-1.59l-.36-.32h0l-1.44-.95,1.44-1h0a10.44,10.44,0,0,0,3.61-7.63,11.12,11.12,0,0,0-1.81-5.71,7.13,7.13,0,0,0-1.44-1.59c0-.32-.36-.32-.36-.32h0l-1.44-1.59,1.8-1.27a10.69,10.69,0,0,0,3.61-7.94,11.16,11.16,0,0,0-1.81-5.72c-.36-.32-.72-.63-.72-.95H195c-.36.32-.36.63-.72.95a8.61,8.61,0,0,0-1.81,5.72c0,5.08,3.61,7.62,3.61,7.94l1.44,1.27-1.44,1h0l-.36.31a9.26,9.26,0,0,0-1.44,1.59,8.61,8.61,0,0,0-1.81,5.72,9.64,9.64,0,0,0,3.61,7.62l1.44,1-1.44,1h0l-.36.32a9.53,9.53,0,0,0-3.25,7.3A9.67,9.67,0,0,0,196.1,460h0l1.44.95-1.44.95h0l-.36.32-1.44,1.27a8.61,8.61,0,0,0-1.81,5.72,15.75,15.75,0,0,0,1.08,6.35h0c.36,0,.36.32,1.09.32a24.09,24.09,0,0,0,6.13.63c5.77,0,8.66-3.17,8.66-3.17l1.08-1.27,1.08,1.27h0l.36.31,1.44,1.28a11.85,11.85,0,0,0,6.5,1.58c5.77,0,8.65-3.17,8.65-3.17l1.09-1.27,1.08,1.27h0l.36.31a8.11,8.11,0,0,0,1.8,1c1.44,1,3.61,1.59,6.86,1.59,5.77,0,8.65-3.18,8.65-3.18l1.08-1.27,1.09,1.27h0l.36.32a8.58,8.58,0,0,0,1.8.95l2.17,1v34.63Zm-47.26-21.29a4.85,4.85,0,0,1,.36,2.23,4.37,4.37,0,0,1-2.16,3.81,24.36,24.36,0,0,1-8.3,3.18,28.58,28.58,0,0,1-4.69.63c-.36,0-.72.32-1.08.32a1.08,1.08,0,0,1,.36.95,1.81,1.81,0,0,1-3.6,0h0a2.73,2.73,0,0,1,1.08-2.22,1.43,1.43,0,0,1,1.08-.32c.36,0,1.08-.32,1.44-.32,1.45-.31,2.89-.63,5-.95a19.11,19.11,0,0,0,7.22-2.54,2.36,2.36,0,0,0,1.44-2.22,3.09,3.09,0,0,0-.36-1.59c-.36-.32-.72-1-1.44-1a7.1,7.1,0,0,0-2.53-.31h-.72c-1.44,0-3.61.95-5.41,1.9,0,0-9.74,8.9-10.82,9.85a11.6,11.6,0,0,1-8.3,4.45.73.73,0,0,1,.72.63,1.08,1.08,0,0,1-1.08,1h-.36l1.44,2.85h4.69c.36,0,1.08.32,1.08,1a1.08,1.08,0,0,1-1.08.95H163.27c-.36,0-1.08-.32-1.08-.95a1.08,1.08,0,0,1,1.08-1H168l1.45-2.85h-.36c-.37,0-1.09-.32-1.09-1a.73.73,0,0,1,.72-.63h-.36s-6.13-1.59-9.74-6c-1.08-1.27-4.68-5.72-7.93-6.35-2.17-.32-11.18-1.27-11.18-1.27a1.16,1.16,0,0,1-1.09-1.27c0-.64.73-1,1.45-1a23.46,23.46,0,0,1,3.6.32c-.36,0-.72-.32-.36-.95a.74.74,0,0,1,.73-.64h0a3.64,3.64,0,0,1-2.17-2.86,10,10,0,0,1,.36-2.22,4.58,4.58,0,0,0,1.08,1.59,2.46,2.46,0,0,0,1.81.95,1.72,1.72,0,0,1-.36-1.27c-.36-1.59,1.8-3.17,2.16-2.86a5.07,5.07,0,0,0,1.8,3.5s.37,0,1.09-1a2.78,2.78,0,0,0,.36-2.22s1.8,1.27,1.8,2.54c0,1.59,0,1.59-.36,1.59,0,.32,1.44-.32,1.44-1.59,0-.32.72,1.91,0,2.54-.72,1-1.44,1.59-2.16,1.59h0c.36.32.36.32.36.64s-.36.63-1.08.63H151c1.44.32,4.69.32,7.57.64h2.17a.74.74,0,0,1-.72-.64c0-.63.36-.95,1.08-.95H168l1.45-1.91c-.36,0-.36-.31-.36-.63a1.08,1.08,0,0,1,1.08-1h2.16a1.58,1.58,0,0,1-.72-1.27,1.46,1.46,0,0,1,2.89,0,1.56,1.56,0,0,1-.73,1.27h2.53c.36,0,1.08.32,1.08,1a1,1,0,0,1-.36.63l1.08,1.91h7.22c.36,0,1.08.32,1.08.95a.74.74,0,0,1-.72.64h4.69a8.53,8.53,0,0,0,4.33-1.27c.36-.32,1.08-.64,1.44-1a20,20,0,0,1,6.13-2.22H203a11.22,11.22,0,0,1,3.25.32c.72,1.27,1.8,1.9,2.52,3.17"/><polygon class="cls-1" points="300.71 408.52 300.71 471.09 345.8 471.09 345.8 462.52 311.53 462.52 311.53 408.52 300.71 408.52"/><path class="cls-1" d="M388.72,466.33a22.56,22.56,0,0,1-15.15,5.4c-6.85,0-11.9-2.22-15.15-5.4-4.69-4.45-6.13-10.17-6.13-17.47,0-7.63,1.08-13,6.13-17.47a22.56,22.56,0,0,1,15.15-5.4c6.85,0,11.9,2.22,15.15,5.4,4.69,4.44,6.13,10.16,6.13,17.47-.36,7.62-1.44,13-6.13,17.47m-7.94-29.86a11.1,11.1,0,0,0-7.57-2.54,10.79,10.79,0,0,0-7.21,2.54c-3.25,2.86-3.61,7.31-3.61,12.07s.36,9.53,3.61,12.07a10.79,10.79,0,0,0,7.21,2.54,11.78,11.78,0,0,0,7.57-2.54c3.25-2.86,3.61-7.3,3.61-12.07,0-4.45-.36-9.21-3.61-12.07"/><path class="cls-1" d="M436.69,471.09v-4.44a18.69,18.69,0,0,1-13.34,5.08,20.3,20.3,0,0,1-12.63-4.13c-4-3.49-5.05-7.62-5.05-12.71V426.62h10.1v27c0,7,4.33,9.85,10.1,9.85s10.46-3.18,10.46-9.85v-27h10.1v44.47Z"/><path class="cls-1" d="M477.46,489.52c-7.58,0-12.63-1.59-18-6l6.49-5.72a15.74,15.74,0,0,0,10.82,3.82c8.66,0,11.91-5.4,11.91-11.44v-5.72c-3.61,3.81-7.94,5.09-13,5.09s-9.38-1.59-11.9-3.82c-5.05-4.44-5.77-10.48-5.77-18.1s.72-13.66,5.77-18.11c2.88-2.54,7.21-3.81,12.26-3.81,5.41,0,9.38,1.27,13.35,5.4v-4.45h9.74v44.16c0,11.11-7.94,18.74-21.64,18.74m1.44-55.59c-9,0-10.46,7-10.46,14s1.08,14,10.46,14c9,0,10.1-7,10.1-14s-1.08-14-10.1-14"/><path class="cls-1" d="M543.83,471.09v-27c0-7-4.33-9.84-10.1-9.84s-10.46,3.17-10.46,9.84v27h-10.1V408.52h10.1v22.55A18.81,18.81,0,0,1,536.61,426a20.3,20.3,0,0,1,12.63,4.13c4,3.49,5,7.62,5,12.7v28.59H543.83Z"/><path class="cls-1" d="M603.34,467.6c-2.88,2.54-7.21,3.81-12.26,3.81-5.41,0-9.74-1.27-13.35-5.4v5.08h-10.1V408.52h10.1v22.55c3.61-3.81,7.94-5.08,13.35-5.08a20.27,20.27,0,0,1,12.26,3.81c5,4.45,5.78,11.43,5.78,18.74,0,7.62-.73,14.61-5.78,19.06m-15.15-33.67c-9.37,0-10.46,7-10.46,14.61,0,7.94,1.45,14.93,10.46,14.93s10.47-7,10.47-14.93c.36-7.62-1.09-14.61-10.47-14.61"/><path class="cls-1" d="M654.57,466.33a22.56,22.56,0,0,1-15.15,5.4c-6.86,0-11.91-2.22-15.15-5.4-4.69-4.45-6.14-10.17-6.14-17.47,0-7.63,1.09-13,6.14-17.47a22.52,22.52,0,0,1,15.15-5.4c6.85,0,11.9,2.22,15.15,5.4,4.69,4.44,6.13,10.16,6.13,17.47-.36,7.62-1.44,13-6.13,17.47m-7.94-29.86a11.12,11.12,0,0,0-7.58-2.54,10.81,10.81,0,0,0-7.21,2.54c-3.25,2.86-3.61,7.31-3.61,12.07s.36,9.53,3.61,12.07a10.81,10.81,0,0,0,7.21,2.54,11.81,11.81,0,0,0,7.58-2.54c3.25-2.86,3.61-7.3,3.61-12.07,0-4.45-.36-9.21-3.61-12.07"/><path class="cls-1" d="M699.66,437.1a10,10,0,0,0-7.58-2.85A9.78,9.78,0,0,0,682,444.41v26.68h-10.1V426.62H682v4.77c2.53-3.18,7.94-5.4,13.35-5.4,5,0,8.65,1.27,11.9,4.13Z"/><path class="cls-1" d="M747.27,466.33a22.56,22.56,0,0,1-15.15,5.4c-6.85,0-11.9-2.22-15.15-5.4-4.69-4.45-6.13-10.17-6.13-17.47,0-7.63,1.08-13,6.13-17.47a22.56,22.56,0,0,1,15.15-5.4c6.85,0,11.9,2.22,15.15,5.4,4.69,4.44,6.13,10.16,6.13,17.47,0,7.62-1.08,13-6.13,17.47m-7.58-29.86a11.1,11.1,0,0,0-7.57-2.54,10.83,10.83,0,0,0-7.22,2.54c-3.24,2.86-3.6,7.31-3.6,12.07s.36,9.53,3.6,12.07a10.83,10.83,0,0,0,7.22,2.54,12.56,12.56,0,0,0,7.57-2.54c3.25-2.86,3.61-7.3,3.61-12.07,0-4.45-.36-9.21-3.61-12.07"/><path class="cls-1" d="M795.6,471.09v-4.44a18.69,18.69,0,0,1-13.34,5.08,20.3,20.3,0,0,1-12.63-4.13c-4-3.49-5-7.62-5-12.71V426.62h10.1v27c0,7,4.33,9.85,10.1,9.85s10.46-3.18,10.46-9.85v-27h10.1v44.47Z"/><path class="cls-1" d="M836.37,489.52c-7.58,0-12.63-1.59-17.68-6l6.49-5.72A15.76,15.76,0,0,0,836,481.58c8.66,0,11.91-5.4,11.91-11.44v-5.72c-3.61,3.81-7.94,5.09-13,5.09s-9.38-1.59-11.9-3.82c-5-4.44-5.77-10.48-5.77-18.1s.72-13.66,5.77-18.11c2.88-2.54,7.21-3.81,12.26-3.81,5.41,0,9.38,1.27,13.35,5.4v-4.45h9.74v44.16c-.36,11.11-8.66,18.74-22,18.74m1.08-55.59c-9,0-10.46,7-10.46,14s1.08,14,10.46,14c9,0,10.1-7,10.1-14,.36-7-.72-14-10.1-14"/><path class="cls-1" d="M902.74,471.09v-27c0-7-4.33-9.84-10.1-9.84s-10.46,3.17-10.46,9.84v27h-10.1V408.52h10.1v22.55A18.81,18.81,0,0,1,895.52,426a20.3,20.3,0,0,1,12.63,4.13c4,3.49,5.05,7.62,5.05,12.7v28.59H902.74Z"/><path class="cls-1" d="M326.32,559.4c-14.43,0-25.61-8.58-25.61-21.6V496.51h10.82v41c0,8.26,5.77,13.66,14.79,13.66s14.79-5.08,14.79-13.66v-41h10.82V537.8c0,13-11.19,21.6-25.61,21.6"/><path class="cls-1" d="M396.66,559.08v-27c0-7-4.33-9.84-10.1-9.84s-10.46,3.17-10.46,9.84v27H366V514.61h10.1v4.45a20.67,20.67,0,0,1,26-.95c4,3.49,5.05,7.62,5.05,12.7V559.4H396.66Z"/><path class="cls-1" d="M420.1,496.19h10.82v9.53H420.1Zm.36,18.1h10.1v44.48h-10.1Z"/><polygon class="cls-1" points="464.11 559.08 455.81 559.08 437.42 514.29 447.88 514.29 460.14 545.74 471.68 514.29 482.5 514.29 464.11 559.08"/><path class="cls-1" d="M496.93,539.39c0,7.62,4.33,12.39,13,12.39,5.77,0,8.66-1.27,12.26-4.45l6.5,5.4c-5,4.45-10.1,7-19.12,7-12.63,0-22.73-6-22.73-22.87,0-14.61,8.66-22.87,21.29-22.87,13.7,0,21.64,8.57,21.64,21.6v3.81ZM518.22,527c-1.81-3.49-5.05-5.72-10.1-5.72s-8.3,2.23-10.1,5.72c-1.09,1.91-1.09,3.18-1.45,6H519.3c0-2.86,0-4.13-1.08-6"/><path class="cls-1" d="M568.72,524.78a9.93,9.93,0,0,0-7.58-2.86A9.78,9.78,0,0,0,551,532.08v27h-10.1V514.61H551v4.77c2.53-3.18,7.94-5.4,13.35-5.4,5.05,0,8.65,1.27,11.9,4.13Z"/><path class="cls-1" d="M599,559.4c-8.3,0-15.15-1.27-21.29-6.35l6.86-6c4,3.81,9.74,4.77,14.43,4.77,6.13,0,11.18-1.91,11.18-6,0-3.17-1.81-4.76-6.86-5.4l-7.93-.63c-9.74-.64-14.79-4.45-14.79-12.39,0-8.9,8.3-13.66,19.12-13.66,7.57,0,14.07,1.27,18.75,5.08L612,524.46c-3.24-2.22-7.57-3.18-12.62-3.18-6.14,0-9,2.23-9,5.72,0,3.18,2.16,4.77,6.85,5.08l7.22.64c10.46.95,15.87,4.76,15.87,12.7-.36,9.22-9.38,14-21.28,14"/><path class="cls-1" d="M629.68,496.19H640.5v9.53H629.68Zm.36,18.1h10.1v44.48H630Z"/><path class="cls-1" d="M669.36,559.08c-9.38,0-13.71-6-13.71-12.39V521.28h-6.13v-7h5.77v-12.7h10.1v12.7h9.74v7h-9.74v24.78c0,3.18,1.8,5.08,5.77,5.08h4.33v7.63h-6.13Z"/><path class="cls-1" d="M701.82,568a13.94,13.94,0,0,1-3.61,5.4c-2.88,2.54-6.49,3.17-10.46,3.17h-4v-7.94h2.53c4.33,0,5.77-1.27,7.21-4.76l2.89-7-17.68-42.57h10.83l11.9,31.45,11.9-31.45h10.82Z"/></svg>